<svg width="45" height="43" viewBox="0 0 45 43" fill="none" xmlns="http://www.w3.org/2000/svg">
<g filter="url(#filter0_f_3529_8302)">
<path d="M15.7038 32.7104C15.7038 36.0505 13.0838 38.7582 9.85192 38.7582C6.61999 38.7582 4 36.0505 4 32.7104C4 29.3704 6.61999 26.6627 9.85192 26.6627C13.0838 26.6627 15.7038 29.3704 15.7038 32.7104Z" fill="#6CFCE0"/>
</g>
<g filter="url(#filter1_f_3529_8302)">
<path d="M40.5746 9.79209C40.5746 12.9688 37.9546 15.544 34.7226 15.544C31.4907 15.544 28.8707 12.9688 28.8707 9.79209C28.8707 6.6154 31.4907 4.04019 34.7226 4.04019C37.9546 4.04019 40.5746 6.6154 40.5746 9.79209Z" fill="#FCFF5C"/>
</g>
<g clip-path="url(#clip0_3529_8302)">
<path d="M29.9411 10.9108C29.8044 10.7743 29.5953 10.7161 29.2857 10.7301C28.4915 10.7663 27.6974 10.8104 26.9032 10.8526C26.485 10.8747 26.0688 10.8968 25.6506 10.9189C25.3008 10.9369 25.0796 11.0754 24.9751 11.3404C24.8605 11.6315 24.9349 11.9086 25.1902 12.1375C25.339 12.272 25.4878 12.4105 25.6386 12.549L25.7632 12.6634L25.7572 12.6695C25.719 12.7136 25.6908 12.7458 25.6607 12.7759L24.6353 13.7997C24.1407 14.2936 23.6481 14.7855 23.1555 15.2793C22.7534 15.6829 22.7554 16.0141 23.1636 16.4217L23.5938 16.8533C23.8713 17.1323 24.1467 17.4094 24.4262 17.6864C24.6192 17.8772 24.8062 17.9735 24.9912 17.9735C25.1761 17.9735 25.3611 17.8792 25.5521 17.6884C25.8658 17.3753 26.1794 17.0621 26.4931 16.7469C26.7162 16.522 26.9394 16.2992 27.1626 16.0743C27.4058 15.8314 27.6491 15.5905 27.9085 15.3356L28.1799 15.0665L28.3005 15.197C28.4413 15.3496 28.572 15.4942 28.7026 15.6387C28.9318 15.8937 29.2073 15.972 29.5008 15.8615C29.7682 15.7612 29.913 15.5363 29.9311 15.191L29.9974 13.9543C30.0397 13.1573 30.0839 12.3603 30.1221 11.5613C30.1342 11.2581 30.0779 11.0493 29.9411 10.9108ZM25.0193 16.8332L23.9779 15.8334L26.2578 13.5729L26.3624 13.4705C26.4609 13.3741 26.5594 13.2778 26.6539 13.1754C26.9314 12.8702 26.9293 12.5109 26.6479 12.2137C26.5393 12.0973 26.4207 11.9909 26.3081 11.8865C26.3021 11.8805 26.296 11.8745 26.29 11.8684L29.1289 11.7239L28.9761 14.6188C28.97 14.6128 28.966 14.6068 28.962 14.6008C28.8796 14.4863 28.7951 14.3659 28.6926 14.2615C28.5096 14.0748 28.3347 13.9844 28.1578 13.9824C28.1558 13.9824 28.1558 13.9824 28.1538 13.9824C27.9768 13.9824 27.8019 14.0708 27.619 14.2515C27.046 14.8176 26.475 15.3857 25.904 15.9559L25.0656 16.7911C25.0495 16.8051 25.0354 16.8192 25.0193 16.8332Z" fill="black"/>
<path d="M26.489 6.18094C21.9693 6.18094 18.3041 9.84078 18.3041 14.3538C18.3041 18.8669 21.9693 22.5267 26.489 22.5267C31.0087 22.5267 34.6739 18.8669 34.6739 14.3538C34.6739 9.84078 31.0107 6.18094 26.489 6.18094ZM26.4589 21.5089C22.5182 21.5089 19.3254 18.3188 19.3254 14.386C19.3254 10.4511 22.5202 7.26303 26.4589 7.26303C30.3995 7.26303 33.5923 10.4531 33.5923 14.386C33.5923 18.3188 30.3975 21.5089 26.4589 21.5089Z" fill="black"/>
<path d="M37.5669 26.291C37.008 25.5421 36.1073 25.3153 35.2186 25.7007C33.767 26.3291 32.3214 26.9675 30.8738 27.6039C30.1963 27.901 29.5207 28.2002 28.8432 28.4973C28.62 28.5957 28.3968 28.69 28.1596 28.7904L27.9344 28.8868C27.9344 28.8787 27.9324 28.8707 27.9324 28.8627C27.9243 28.7744 27.9203 28.7041 27.9243 28.6378C28.0148 27.3449 26.8929 26.0661 25.5197 25.8995L24.8965 25.8232C23.8852 25.6987 22.8397 25.5702 21.8083 25.4799C20.4632 25.3614 19.4037 25.0242 18.4768 24.4199C17.5419 23.8116 16.4602 23.4081 15.2639 23.2234C14.9443 23.1732 14.6186 23.139 14.3029 23.1069C14.1843 23.0949 14.0657 23.0828 13.949 23.0688C13.7962 21.9425 13.3559 21.5771 12.1798 21.5771C12.0611 21.5771 11.9425 21.5791 11.8219 21.5812C11.5665 21.5852 11.3032 21.5912 11.0478 21.5731C10.1813 21.5089 9.60224 21.8261 9.27452 22.5428L9.26648 22.5629V33.2432L9.27452 33.2814C9.54595 33.9339 9.96012 34.2571 10.5392 34.2751C11.2127 34.2952 11.9204 34.2952 12.6422 34.2751C13.2594 34.2591 13.75 33.8415 13.8907 33.2151C13.9068 33.1409 13.9229 33.0646 13.941 32.9823L13.945 32.9682C14.2325 33.0746 14.52 33.177 14.8055 33.2794C15.5354 33.5424 16.227 33.7893 16.9146 34.0804C18.1511 34.6004 19.3936 34.8573 20.7025 34.8573C20.8251 34.8573 20.9498 34.8553 21.0724 34.8513C22.3974 34.8031 23.7484 34.8152 25.0573 34.8292C25.4835 34.8333 25.9078 34.8373 26.334 34.8393C26.342 34.8393 26.3521 34.8393 26.3601 34.8393C27.3936 34.8393 28.3365 34.5602 29.2433 33.9861C30.3109 33.3095 31.3805 32.6349 32.4481 31.9604C33.9821 30.9907 35.5162 30.0211 37.0482 29.0494C37.2231 28.939 37.3659 28.8185 37.4764 28.69C38.0595 28.0095 38.0977 27.0016 37.5669 26.291ZM13.9289 24.454V24.1589C13.9973 24.1609 14.0636 24.1629 14.13 24.1649C14.3411 24.1709 14.5422 24.177 14.7392 24.2031C15.9918 24.3677 17.1056 24.7632 18.0506 25.3835C19.0397 26.032 20.1938 26.3933 21.6816 26.5198C22.3008 26.572 22.9302 26.6503 23.5373 26.7266C24.0963 26.7969 24.6753 26.8671 25.2483 26.9193C26.0988 26.9976 26.9593 27.7364 26.8628 28.7944C26.8547 28.8928 26.8567 28.9872 26.8588 29.0976C26.8588 29.1217 26.8588 29.1478 26.8608 29.1739H23.9535C23.4931 29.1739 23.0307 29.1719 22.5703 29.1779C22.2244 29.1819 22.0093 29.3847 22.0093 29.7099C22.0093 29.8805 22.0656 30.011 22.1742 30.1014C22.2707 30.1817 22.4074 30.2218 22.5763 30.2218C22.5763 30.2218 22.5763 30.2218 22.5783 30.2218H24.0802C25.1699 30.2218 26.2576 30.2218 27.3473 30.2158C27.5263 30.2158 27.7072 30.1435 27.8278 30.0913C29.0744 29.5433 30.3209 28.9952 31.5675 28.4471C32.8663 27.8749 34.1671 27.3028 35.4679 26.7326C35.8218 26.578 36.1977 26.4696 36.5476 26.7366C36.7748 26.9093 36.8994 27.1683 36.8874 27.4453C36.8753 27.7445 36.7104 28.0155 36.439 28.1881C34.8788 29.1779 33.3186 30.1636 31.7564 31.1513L29.5408 32.5526C29.2392 32.7434 28.9357 32.9341 28.6341 33.1248C27.9445 33.5625 27.1704 33.7853 26.33 33.7853L24.5245 33.7833C23.0287 33.7813 21.4826 33.7793 19.9626 33.7893C19.1845 33.7913 18.4949 33.5364 17.7651 33.2633L17.6002 33.2031C17.2323 33.0666 16.8643 32.9281 16.4964 32.7915C15.7123 32.4984 14.9041 32.1953 14.1018 31.9082C13.941 31.85 13.933 31.7837 13.933 31.599C13.935 30.525 13.935 29.4529 13.933 28.3789H13.945V24.5544L13.9289 24.454ZM12.8794 27.2446C12.8593 27.3168 12.8654 27.3971 12.8714 27.4734C12.8734 27.5056 12.8754 27.5377 12.8754 27.5678V29.6135C12.8754 30.6374 12.8754 31.6593 12.8754 32.6831C12.8754 33.177 12.8251 33.2272 12.3406 33.2292H12.1275C11.6651 33.2312 11.2026 33.2312 10.7402 33.2272C10.3904 33.2232 10.316 33.1529 10.316 32.8277C10.314 31.0891 10.314 29.3505 10.314 27.612C10.314 26.0822 10.314 24.5524 10.312 23.0226C10.312 22.7536 10.4266 22.6331 10.6839 22.6311C10.9875 22.6271 11.2951 22.6271 11.6047 22.6271C11.9023 22.6271 12.1999 22.6291 12.4974 22.6311C12.7608 22.6331 12.8774 22.7656 12.8754 23.0607C12.8734 23.8076 12.8734 24.5524 12.8774 25.2992C12.8774 25.3313 12.8794 25.3594 12.8835 25.3775L12.8794 27.2446Z" fill="black"/>
</g>
<defs>
<filter id="filter0_f_3529_8302" x="0" y="22.6627" width="19.7039" height="20.0954" filterUnits="userSpaceOnUse" color-interpolation-filters="sRGB">
<feFlood flood-opacity="0" result="BackgroundImageFix"/>
<feBlend mode="normal" in="SourceGraphic" in2="BackgroundImageFix" result="shape"/>
<feGaussianBlur stdDeviation="2" result="effect1_foregroundBlur_3529_8302"/>
</filter>
<filter id="filter1_f_3529_8302" x="24.8707" y="0.0401917" width="19.7039" height="19.5038" filterUnits="userSpaceOnUse" color-interpolation-filters="sRGB">
<feFlood flood-opacity="0" result="BackgroundImageFix"/>
<feBlend mode="normal" in="SourceGraphic" in2="BackgroundImageFix" result="shape"/>
<feGaussianBlur stdDeviation="2" result="effect1_foregroundBlur_3529_8302"/>
</filter>
<clipPath id="clip0_3529_8302">
<rect width="28.6744" height="28.6744" fill="white" transform="translate(9.26648 6.18094)"/>
</clipPath>
</defs>
</svg>
